# xmcd
# 
# Track frame offsets:
#     187
#     20712
#     37037
#     57037
#     78042
#     99572
#     133100
#     148752
#     176527
# 
# Disc length: 2584
# 
# Revision: 1
# Processed by: cddbd v1.5.2PL0 Copyright (c) Steve Scherf et al.
# Submitted via: BonkEnc v1.0.6
# 
DISCID=750a1609
DTITLE=John Lee Hooker - More Real Folk Blues
DYEAR=1997
DGENRE=Blues
TTITLE0=This Land Is Nobody's Land
TTITLE1=Deep Blue Sea
TTITLE2=Nobody Knows
TTITLE3=Mustang Sally and GTO
TTITLE4=Lead Me
TTITLE5=Catfish
TTITLE6=I Can't Quit You Baby
TTITLE7=Want Ad Blues
TTITLE8=House Rent Blues
EXTD=MCA Records Inc. YEAR: 1997
EXTT0=
EXTT1=
EXTT2=
EXTT3=
EXTT4=
EXTT5=
EXTT6=
EXTT7=
EXTT8=
PLAYORDER=
